<svg id="visual" viewBox="0 0 960 540" width="960" height="540" xmlns="http://www.w3.org/2000/svg" xmlns:xlink="http://www.w3.org/1999/xlink" version="1.1"><rect x="0" y="0" width="960" height="540" fill="#eeecec"></rect><path d="M0 88L14.5 86.7C29 85.3 58 82.7 87.2 81.3C116.3 80 145.7 80 174.8 83.3C204 86.7 233 93.3 262 94C291 94.7 320 89.3 349 85.7C378 82 407 80 436.2 77.2C465.3 74.3 494.7 70.7 523.8 74.7C553 78.7 582 90.3 611 93.7C640 97 669 92 698 87.7C727 83.3 756 79.7 785.2 81.8C814.3 84 843.7 92 872.8 91.3C902 90.7 931 81.3 945.5 76.7L960 72L960 0L945.5 0C931 0 902 0 872.8 0C843.7 0 814.3 0 785.2 0C756 0 727 0 698 0C669 0 640 0 611 0C582 0 553 0 523.8 0C494.7 0 465.3 0 436.2 0C407 0 378 0 349 0C320 0 291 0 262 0C233 0 204 0 174.8 0C145.7 0 116.3 0 87.2 0C58 0 29 0 14.5 0L0 0Z" fill="#C62368" stroke-linecap="round" stroke-linejoin="miter"></path></svg>