<svg id="visual" viewBox="0 0 900 675" width="900" height="675" xmlns="http://www.w3.org/2000/svg" xmlns:xlink="http://www.w3.org/1999/xlink" version="1.1"><rect x="0" y="0" width="900" height="675" fill="#F7CACA"></rect><path d="M0 198L13.7 196.8C27.3 195.7 54.7 193.3 82 180.2C109.3 167 136.7 143 163.8 141C191 139 218 159 245.2 174.7C272.3 190.3 299.7 201.7 327 192.5C354.3 183.3 381.7 153.7 409 152C436.3 150.3 463.7 176.7 491 191.8C518.3 207 545.7 211 573 209.3C600.3 207.7 627.7 200.3 654.8 198.2C682 196 709 199 736.2 192.8C763.3 186.7 790.7 171.3 818 170.7C845.3 170 872.7 184 886.3 191L900 198L900 0L886.3 0C872.7 0 845.3 0 818 0C790.7 0 763.3 0 736.2 0C709 0 682 0 654.8 0C627.7 0 600.3 0 573 0C545.7 0 518.3 0 491 0C463.7 0 436.3 0 409 0C381.7 0 354.3 0 327 0C299.7 0 272.3 0 245.2 0C218 0 191 0 163.8 0C136.7 0 109.3 0 82 0C54.7 0 27.3 0 13.7 0L0 0Z" fill="#C62368" stroke-linecap="round" stroke-linejoin="miter"></path></svg>